<svg width="640" height="360" viewBox="0 0 640 360" fill="none" xmlns="http://www.w3.org/2000/svg">
<g clip-path="url(#clip0_1465_18570)">
<rect width="640" height="360" fill="white"/>
<path d="M640 0H0V360H640V0Z" fill="black"/>
<path d="M642.017 43.625H354.624V316.378H642.017V43.625Z" fill="#FF7051" stroke="black" stroke-width="2"/>
<path d="M504.865 61.3692H492.22V52.261C492.87 49.3762 495.333 47.2732 498.177 47.1115C501.272 46.9362 504.143 49.1066 504.865 52.261C504.865 55.2985 504.865 58.3361 504.865 61.3692Z" fill="black"/>
<path d="M498.545 55.6913C499.558 55.6913 500.379 54.8685 500.379 53.8535C500.379 52.8384 499.558 52.0156 498.545 52.0156C497.531 52.0156 496.71 52.8384 496.71 53.8535C496.71 54.8685 497.531 55.6913 498.545 55.6913Z" fill="#E2442F"/>
<path d="M498.293 301.095C564.936 301.095 618.96 246.979 618.96 180.223C618.96 113.468 564.936 59.3516 498.293 59.3516C431.651 59.3516 377.627 113.468 377.627 180.223C377.627 246.979 431.651 301.095 498.293 301.095Z" fill="black"/>
<path d="M498.291 301.1C564.935 301.1 618.96 246.983 618.96 180.226C618.96 113.469 564.935 59.3516 498.291 59.3516C431.648 59.3516 377.622 113.469 377.622 180.226C377.622 246.983 431.648 301.1 498.291 301.1Z" fill="#90A8ED"/>
<path d="M498.291 280.428C471.569 280.428 446.448 270.003 427.559 251.077C408.669 232.15 398.257 206.991 398.257 180.224C398.257 153.456 408.664 128.293 427.559 109.371C446.453 90.4489 471.574 80.0195 498.291 80.0195C525.009 80.0195 550.134 90.4444 569.024 109.371C587.914 128.297 598.325 153.461 598.325 180.224C598.325 206.987 587.918 232.155 569.024 251.077C550.129 269.999 525.013 280.428 498.291 280.428Z" fill="#B23386"/>
<path d="M498.291 259.756C477.082 259.756 457.143 251.484 442.147 236.462C427.151 221.44 418.892 201.467 418.892 180.222C418.892 158.977 427.151 139.003 442.147 123.982C457.143 108.96 477.082 100.688 498.291 100.688C519.5 100.688 539.44 108.96 554.436 123.982C569.432 139.003 577.69 158.977 577.69 180.222C577.69 201.467 569.432 221.44 554.436 236.462C539.44 251.484 519.5 259.756 498.291 259.756Z" fill="#FF90E8"/>
<path d="M498.291 59.3516V301.1" stroke="black" stroke-width="2" stroke-miterlimit="10"/>
<path d="M618.965 180.23H377.627" stroke="black" stroke-width="2" stroke-miterlimit="10"/>
<path d="M610.181 134.961L386.406 225.491" stroke="black" stroke-width="2" stroke-miterlimit="10"/>
<path d="M589.901 101.539L406.7 258.909" stroke="black" stroke-width="2" stroke-miterlimit="10"/>
<path d="M550.376 71.1836L446.215 289.256" stroke="black" stroke-width="2" stroke-miterlimit="10"/>
<path d="M551.439 288.75L445.148 71.7109" stroke="black" stroke-width="2" stroke-miterlimit="10"/>
<path d="M588.524 260.704L408.229 100" stroke="black" stroke-width="2" stroke-miterlimit="10"/>
<path d="M610.971 223.92L385.881 136.715" stroke="black" stroke-width="2" stroke-miterlimit="10"/>
<path d="M498.291 190.561C495.416 190.561 493.029 189.572 490.997 187.532C488.961 185.492 487.974 183.106 487.974 180.226C487.974 177.345 488.961 174.955 490.997 172.919C493.029 170.884 495.416 169.891 498.291 169.891C501.167 169.891 503.553 170.879 505.585 172.919C507.622 174.955 508.609 177.345 508.609 180.226C508.609 183.106 507.622 185.496 505.585 187.532C503.553 189.572 501.167 190.561 498.291 190.561Z" fill="black"/>
<path d="M498.291 187.188C496.353 187.188 494.747 186.523 493.375 185.148C492.002 183.773 491.338 182.164 491.338 180.223C491.338 178.282 492.002 176.673 493.375 175.298C494.747 173.923 496.353 173.258 498.291 173.258C500.229 173.258 501.835 173.927 503.208 175.298C504.58 176.673 505.244 178.282 505.244 180.223C505.244 182.164 504.58 183.773 503.208 185.148C501.835 186.523 500.229 187.188 498.291 187.188Z" fill="black"/>
<path d="M498.291 183.596C497.354 183.596 496.578 183.272 495.914 182.607C495.25 181.942 494.927 181.165 494.927 180.226C494.927 179.286 495.25 178.509 495.914 177.844C496.578 177.179 497.354 176.855 498.291 176.855C499.229 176.855 500.005 177.179 500.669 177.844C501.333 178.509 501.656 179.286 501.656 180.226C501.656 181.165 501.333 181.942 500.669 182.607C500.005 183.272 499.229 183.596 498.291 183.596Z" fill="#E2442F"/>
<path d="M295.11 180.639C291.477 186.238 284.537 190.165 284.537 190.165L284.954 187.743C284.954 187.743 280.657 191.307 276.09 192.794C276.368 191.675 276.772 189.882 276.772 189.882C276.772 189.882 270.967 192.821 267.594 193.504C267.944 192.511 268.532 190.489 268.532 190.489C265.369 192.084 260.184 193.171 260.184 193.171L262.848 189.914L254.038 191.688C254.038 191.688 260.192 184.121 260.596 179.215L260.605 178.639C260.309 173.733 254.033 166.022 254.033 166.022L262.839 167.801L260.175 164.543C260.175 164.543 265.356 165.631 268.523 167.226C268.523 167.226 267.931 165.204 267.585 164.211C270.958 164.889 276.763 167.833 276.763 167.833C276.763 167.833 276.359 166.04 276.081 164.921C280.648 166.408 284.945 169.972 284.945 169.972L284.528 167.55C284.528 167.55 291.463 171.477 295.101 177.076V180.639H295.11Z" fill="white" stroke="black" stroke-width="2" stroke-miterlimit="10"/>
<path d="M338.932 180.001C334.68 184.93 328.664 186.431 321.985 186.395C321.666 186.399 321.348 186.39 321.025 186.381C320.356 186.368 319.684 186.336 319.006 186.287C318.235 186.242 317.454 186.175 316.674 186.094C315.543 185.981 314.399 185.838 313.255 185.676C306.594 184.737 297.429 180.751 297.429 180.751H255.747V177.219C255.747 177.219 289.319 177.039 299.574 177.075C304.369 174.572 308.384 171.369 318.504 170.686C319.307 170.627 320.15 170.591 321.038 170.569C321.554 170.555 322.088 170.551 322.635 170.551C323.03 170.551 323.416 170.56 323.797 170.578C324.613 170.609 325.399 170.686 326.157 170.793C332.159 171.67 336.384 174.865 338.932 180.001Z" fill="#FFC900" stroke="black" stroke-width="2" stroke-miterlimit="10"/>
<path d="M326.726 177.269C326.484 181.277 325.201 184.355 324.277 186.143C323.488 186.246 322.72 186.314 322.007 186.345C321.666 186.368 321.339 186.377 321.025 186.381C320.258 186.399 319.567 186.381 318.97 186.354C317.539 186.287 316.651 186.143 316.651 186.143C316.66 186.125 316.669 186.112 316.674 186.094C317.598 184.301 318.858 181.241 319.1 177.269C319.262 174.577 318.903 172.312 318.504 170.686C319.307 170.627 320.15 170.591 321.038 170.569C321.554 170.555 322.088 170.551 322.635 170.551C323.03 170.551 323.416 170.56 323.797 170.578C324.613 170.609 325.398 170.686 326.157 170.793C326.547 172.411 326.883 174.635 326.726 177.269Z" fill="black"/>
<path d="M324.416 177.322C324.29 180.571 323.196 183.878 322.007 186.345C322.003 186.359 321.994 186.377 321.985 186.395C321.666 186.399 321.348 186.39 321.025 186.381C320.258 186.399 319.567 186.381 318.97 186.354C318.984 186.332 318.993 186.309 319.006 186.287C320.213 184.139 321.594 180.585 321.725 177.219C321.814 174.833 321.437 172.249 321.038 170.569C321.554 170.555 322.088 170.551 322.635 170.551C323.03 170.551 323.416 170.56 323.797 170.578C324.183 172.42 324.506 174.954 324.416 177.322Z" fill="black"/>
<path d="M338.932 180H361.406" stroke="white" stroke-width="2" stroke-miterlimit="10" stroke-linecap="round" stroke-linejoin="round"/>
<path d="M443.483 147.908C439.85 153.507 432.91 157.434 432.91 157.434L433.327 155.012C433.327 155.012 429.03 158.575 424.463 160.063C424.742 158.944 425.145 157.151 425.145 157.151C425.145 157.151 419.341 160.09 415.967 160.773C416.317 159.78 416.905 157.758 416.905 157.758C413.742 159.353 408.557 160.44 408.557 160.44L411.221 157.182L402.416 158.962C402.416 158.962 408.57 151.395 408.974 146.488L408.983 145.913C408.687 141.006 402.411 133.295 402.411 133.295L411.217 135.075L408.552 131.817C408.552 131.817 413.733 132.904 416.9 134.499C416.9 134.499 416.308 132.477 415.963 131.484C419.336 132.163 425.141 135.106 425.141 135.106C425.141 135.106 424.737 133.313 424.459 132.194C429.026 133.682 433.323 137.245 433.323 137.245L432.906 134.823C432.906 134.823 439.841 138.75 443.479 144.349V147.908H443.483Z" fill="white" stroke="black" stroke-width="2" stroke-miterlimit="10"/>
<path d="M487.305 147.27C483.053 152.199 477.037 153.7 470.358 153.664C470.039 153.669 469.721 153.66 469.398 153.651C468.73 153.637 468.057 153.606 467.379 153.556C466.608 153.511 465.827 153.444 465.047 153.363C463.916 153.251 462.772 153.107 461.629 152.945C454.967 152.006 445.803 148.02 445.803 148.02H404.12V144.489C404.12 144.489 437.692 144.309 447.947 144.345C452.742 141.842 456.757 138.638 466.877 137.955C467.68 137.897 468.523 137.861 469.411 137.838C469.927 137.825 470.461 137.82 471.008 137.82C471.403 137.82 471.789 137.829 472.17 137.847C472.987 137.879 473.772 137.955 474.53 138.063C480.532 138.939 484.758 142.134 487.305 147.27Z" fill="#FFC900" stroke="black" stroke-width="2" stroke-miterlimit="10"/>
<path d="M475.1 144.538C474.857 148.546 473.574 151.624 472.65 153.413C471.861 153.516 471.094 153.583 470.38 153.615C470.04 153.637 469.712 153.646 469.398 153.651C468.631 153.669 467.94 153.651 467.344 153.624C465.913 153.556 465.024 153.413 465.024 153.413C465.033 153.395 465.042 153.381 465.047 153.363C465.971 151.57 467.231 148.51 467.474 144.538C467.635 141.846 467.276 139.582 466.877 137.955C467.68 137.897 468.523 137.861 469.411 137.838C469.927 137.825 470.461 137.82 471.008 137.82C471.403 137.82 471.789 137.829 472.17 137.847C472.987 137.879 473.772 137.955 474.53 138.063C474.92 139.681 475.257 141.905 475.1 144.538Z" fill="black"/>
<path d="M472.789 144.592C472.664 147.841 471.569 151.148 470.38 153.615C470.376 153.628 470.367 153.646 470.358 153.664C470.039 153.669 469.721 153.66 469.398 153.651C468.631 153.669 467.94 153.651 467.344 153.624C467.357 153.601 467.366 153.579 467.379 153.556C468.586 151.409 469.968 147.854 470.098 144.489C470.188 142.103 469.811 139.519 469.411 137.838C469.927 137.825 470.461 137.82 471.008 137.82C471.403 137.82 471.789 137.829 472.17 137.847C472.556 139.69 472.879 142.224 472.789 144.592Z" fill="black"/>
<path d="M487.305 147.27H509.78" stroke="black" stroke-width="2" stroke-miterlimit="10" stroke-linecap="round" stroke-linejoin="round"/>
<path d="M467.37 222.26C463.737 227.858 456.797 231.786 456.797 231.786L457.215 229.364C457.215 229.364 452.917 232.927 448.351 234.414C448.629 233.295 449.032 231.503 449.032 231.503C449.032 231.503 443.228 234.441 439.854 235.124C440.204 234.131 440.792 232.109 440.792 232.109C437.629 233.704 432.444 234.792 432.444 234.792L435.108 231.534L426.303 233.313C426.303 233.313 432.457 225.746 432.861 220.84L432.87 220.264C432.574 215.358 426.298 207.647 426.298 207.647L435.104 209.426L432.439 206.168C432.439 206.168 437.62 207.256 440.787 208.851C440.787 208.851 440.195 206.829 439.85 205.836C443.223 206.514 449.028 209.458 449.028 209.458C449.028 209.458 448.624 207.665 448.346 206.546C452.913 208.033 457.21 211.597 457.21 211.597L456.793 209.175C456.793 209.175 463.728 213.102 467.366 218.701V222.26H467.37Z" fill="white" stroke="black" stroke-width="2" stroke-miterlimit="10"/>
<path d="M511.192 221.622C506.94 226.551 500.924 228.052 494.245 228.016C493.926 228.02 493.608 228.011 493.285 228.002C492.617 227.989 491.944 227.957 491.266 227.908C490.495 227.863 489.714 227.796 488.934 227.715C487.803 227.602 486.659 227.459 485.516 227.297C478.854 226.358 469.69 222.372 469.69 222.372H428.007V218.84C428.007 218.84 461.579 218.66 471.834 218.696C476.629 216.194 480.644 212.99 490.764 212.307C491.567 212.248 492.41 212.212 493.298 212.19C493.814 212.176 494.348 212.172 494.895 212.172C495.29 212.172 495.676 212.181 496.057 212.199C496.874 212.23 497.659 212.307 498.417 212.415C504.419 213.291 508.644 216.486 511.192 221.622Z" fill="#FFC900" stroke="black" stroke-width="2" stroke-miterlimit="10"/>
<path d="M498.987 218.89C498.744 222.898 497.461 225.976 496.537 227.764C495.748 227.868 494.981 227.935 494.267 227.966C493.927 227.989 493.599 227.998 493.285 228.002C492.518 228.02 491.827 228.002 491.231 227.975C489.8 227.908 488.911 227.764 488.911 227.764C488.92 227.746 488.929 227.733 488.934 227.715C489.858 225.922 491.118 222.862 491.361 218.89C491.522 216.198 491.163 213.933 490.764 212.307C491.567 212.248 492.41 212.212 493.299 212.19C493.814 212.176 494.348 212.172 494.896 212.172C495.29 212.172 495.676 212.181 496.057 212.199C496.874 212.23 497.659 212.307 498.417 212.415C498.807 214.032 499.144 216.256 498.987 218.89Z" fill="black"/>
<path d="M496.676 218.944C496.551 222.192 495.456 225.499 494.267 227.966C494.263 227.98 494.254 227.998 494.245 228.016C493.927 228.02 493.608 228.011 493.285 228.002C492.518 228.02 491.827 228.002 491.231 227.975C491.244 227.953 491.253 227.93 491.266 227.908C492.473 225.76 493.855 222.206 493.985 218.84C494.075 216.454 493.698 213.87 493.299 212.19C493.814 212.176 494.348 212.172 494.895 212.172C495.29 212.172 495.676 212.181 496.057 212.199C496.443 214.041 496.766 216.575 496.676 218.944Z" fill="black"/>
<path d="M511.192 221.621H533.666" stroke="black" stroke-width="2" stroke-miterlimit="10" stroke-linecap="round" stroke-linejoin="round"/>
<path d="M124.644 167.461H233.255" stroke="black" stroke-width="2" stroke-miterlimit="10" stroke-linecap="round" stroke-linejoin="round"/>
<path d="M108.096 177.43H245.779" stroke="black" stroke-width="2" stroke-miterlimit="10" stroke-linecap="round" stroke-linejoin="round"/>
<path d="M174.966 188H249.104" stroke="black" stroke-width="2" stroke-miterlimit="10" stroke-linecap="round" stroke-linejoin="round"/>
<path d="M127.704 277.277C125.165 275.641 117.682 269.481 109.877 262.898C124.021 277.744 135.5 294.235 122.267 289.674C116.229 287.589 104.799 278.153 95.1769 269.535C100.138 275.812 96.9263 282.664 90.8615 280.952C89.3453 280.521 88.0175 279.586 86.9992 278.382C87.1472 278.76 92.4495 292.447 78.2653 287.589C67.3109 283.837 58.0118 275.893 59.1602 273.008C59.851 271.273 62.3227 269.117 62.6771 268.811C54.3872 262.633 45.9404 255.326 43.2445 251.722C37.9557 244.654 38.1127 236.629 38.1127 236.629C38.1127 236.629 25.2383 223.31 -1.86951 224.106V181.031C-1.86951 181.031 8.90545 181.319 19.9899 182.357C45.5995 184.756 72.0973 201 79.4361 209.78C79.943 210.383 80.7146 210.684 81.4996 210.598C85.0972 210.189 88.7487 210.387 90.552 210.535C91.2966 210.594 92.0009 210.877 92.5796 211.349C96.0606 214.166 108.832 224.672 109.783 227.786C110.285 232.639 108.625 243.639 108.625 243.639L108.334 243.944C117.633 253.363 129.763 266.335 133.733 273.749C135.33 277.052 135.935 282.566 127.704 277.277Z" fill="#FFC900"/>
<path d="M108.626 243.639C108.626 243.639 110.285 232.639 109.783 227.786C108.836 224.667 96.0652 214.166 92.5842 211.344C92.0055 210.872 91.3013 210.594 90.5566 210.531C88.7533 210.383 85.0974 210.189 81.4997 210.594C80.7192 210.684 79.9431 210.383 79.4407 209.776C72.1019 200.996 45.6041 184.752 19.9901 182.357C8.90557 181.319 -1.86938 181.031 -1.86938 181.031V224.106C25.2385 223.31 38.1128 236.629 38.1128 236.629C38.1128 236.629 37.9558 244.654 43.2446 251.727C47.533 257.461 66.3825 272.572 76.0001 277.591" fill="#FFC900"/>
<path d="M108.626 243.639C108.626 243.639 110.285 232.639 109.783 227.786C108.836 224.667 96.0652 214.166 92.5842 211.344C92.0055 210.872 91.3013 210.594 90.5566 210.531C88.7533 210.383 85.0974 210.189 81.4997 210.594C80.7192 210.684 79.9431 210.383 79.4407 209.776C72.1019 200.996 45.6041 184.752 19.9901 182.357C8.90557 181.319 -1.86938 181.031 -1.86938 181.031V224.106C25.2385 223.31 38.1128 236.629 38.1128 236.629C38.1128 236.629 37.9558 244.654 43.2446 251.727C47.533 257.461 66.3825 272.572 76.0001 277.591" stroke="black" stroke-width="2" stroke-miterlimit="10" stroke-linecap="round" stroke-linejoin="round"/>
<path d="M96.7157 232.523C96.7157 232.523 126.991 261.16 133.733 273.751C135.33 277.054 135.935 282.572 127.704 277.278C121.666 273.396 87.7933 244.004 87.7933 244.004" fill="#FFC900"/>
<path d="M96.7157 232.523C96.7157 232.523 126.991 261.16 133.733 273.751C135.33 277.054 135.935 282.572 127.704 277.278C121.666 273.396 87.7933 244.004 87.7933 244.004" stroke="black" stroke-width="2" stroke-miterlimit="10" stroke-linecap="round" stroke-linejoin="round"/>
<path d="M109.877 262.899C124.021 277.741 135.5 294.237 122.267 289.671C110.608 285.654 78.8262 254.195 78.8262 254.195" fill="#FFC900"/>
<path d="M109.877 262.899C124.021 277.741 135.5 294.237 122.267 289.671C110.608 285.654 78.8262 254.195 78.8262 254.195" stroke="black" stroke-width="2" stroke-miterlimit="10" stroke-linecap="round" stroke-linejoin="round"/>
<path d="M95.177 269.536C100.143 275.813 96.9265 282.666 90.8616 280.949C89.3409 280.518 88.0131 279.579 86.9949 278.37C81.1543 271.455 75.6098 263.263 70.801 261.398" fill="#FFC900"/>
<path d="M95.177 269.536C100.143 275.813 96.9265 282.666 90.8616 280.949C89.3409 280.518 88.0131 279.579 86.9949 278.37C81.1543 271.455 75.6098 263.263 70.801 261.398" stroke="black" stroke-width="2" stroke-miterlimit="10" stroke-linecap="round" stroke-linejoin="round"/>
<path d="M86.9948 278.376C86.9948 278.376 92.647 292.517 78.2654 287.592C67.3155 283.845 58.0164 275.896 59.1603 273.011C59.9005 271.141 62.7265 268.773 62.7265 268.773" fill="#FFC900"/>
<path d="M86.9948 278.376C86.9948 278.376 92.647 292.517 78.2654 287.592C67.3155 283.845 58.0164 275.896 59.1603 273.011C59.9005 271.141 62.7265 268.773 62.7265 268.773" stroke="black" stroke-width="2" stroke-miterlimit="10" stroke-linecap="round" stroke-linejoin="round"/>
<path d="M83.5626 165.574C80.4225 107.384 43.715 60.7555 -2.45312 55.9609" stroke="white" stroke-width="2" stroke-miterlimit="10" stroke-linecap="round" stroke-linejoin="round"/>
<path d="M59.4781 165.574C56.9481 123.924 31.1636 83.5504 -2.44873 80.0859" stroke="white" stroke-width="2" stroke-miterlimit="10" stroke-linecap="round" stroke-linejoin="round"/>
<path d="M35.4521 165.574C36.1609 140.164 24.6054 110.04 -2.45312 104.176" stroke="white" stroke-width="2" stroke-miterlimit="10" stroke-linecap="round" stroke-linejoin="round"/>
<path d="M634.88 74.3321C634.88 74.7724 634.292 74.9162 634.091 74.5253C633.131 72.6605 631.359 69.933 629.031 68.6029C625.769 66.7381 621.961 66.7786 620.427 66.8909C620.167 66.9089 619.951 66.6932 619.983 66.4326C620.158 64.8284 620.198 61.7863 618.408 58.2904C616.497 54.5563 613.442 52.5657 611.374 51.5772C610.971 51.384 611.105 50.7773 611.554 50.7773H634.458C634.692 50.7773 634.876 50.9661 634.876 51.1952V74.3321H634.88Z" fill="black"/>
<path d="M361.76 74.3321C361.76 74.7724 362.348 74.9162 362.55 74.5253C363.51 72.6605 365.282 69.933 367.61 68.6029C370.871 66.7381 374.68 66.7786 376.214 66.8909C376.474 66.9089 376.689 66.6932 376.658 66.4326C376.483 64.8284 376.443 61.7863 378.232 58.2904C380.143 54.5563 383.198 52.5657 385.266 51.5772C385.67 51.384 385.535 50.7773 385.087 50.7773H362.182C361.949 50.7773 361.765 50.9661 361.765 51.1952V74.3321H361.76Z" fill="black"/>
<path d="M634.88 285.671C634.88 285.231 634.292 285.087 634.091 285.478C633.131 287.342 631.359 290.07 629.031 291.4C625.769 293.265 621.961 293.224 620.427 293.112C620.167 293.094 619.951 293.31 619.983 293.57C620.158 295.175 620.198 298.217 618.408 301.713C616.497 305.447 613.442 307.437 611.374 308.426C610.971 308.619 611.105 309.226 611.554 309.226H634.458C634.692 309.226 634.876 309.037 634.876 308.808V285.671H634.88Z" fill="black"/>
<path d="M361.76 285.671C361.76 285.231 362.348 285.087 362.55 285.478C363.51 287.342 365.282 290.07 367.61 291.4C370.871 293.265 374.68 293.224 376.214 293.112C376.474 293.094 376.689 293.31 376.658 293.57C376.483 295.175 376.443 298.217 378.232 301.713C380.143 305.447 383.198 307.437 385.266 308.426C385.67 308.619 385.535 309.226 385.087 309.226H362.182C361.949 309.226 361.765 309.037 361.765 308.808V285.671H361.76Z" fill="black"/>
</g>
<defs>
<clipPath id="clip0_1465_18570">
<rect width="640" height="360" fill="white"/>
</clipPath>
</defs>
</svg>
